<svg width="59" height="40" viewBox="0 0 59 40" fill="none" xmlns="http://www.w3.org/2000/svg">
<path d="M2 36L1.62924e-07 36L-1.62925e-07 40L2 40L2 36ZM57 38L57 40L59 40L59 38L57 38ZM59 2L59 -6.95475e-07L55 -4.45896e-07L55 2L59 2ZM13 40L15 40L15 36L13 36L13 40ZM24 36L22 36L22 40L24 40L24 36ZM35 40L37 40L37 36L35 36L35 40ZM46 36L44 36L44 40L46 40L46 36ZM59 30.8L59 28.8L55 28.8L55 30.8L59 30.8ZM55 23.6L55 25.6L59 25.6L59 23.6L55 23.6ZM59 16.4L59 14.4L55 14.4L55 16.4L59 16.4ZM55 9.2L55 11.2L59 11.2L59 9.2L55 9.2ZM2 40L13 40L13 36L2 36L2 40ZM24 40L35 40L35 36L24 36L24 40ZM46 40L57 40L57 36L46 36L46 40ZM59 38L59 30.8L55 30.8L55 38L59 38ZM59 23.6L59 16.4L55 16.4L55 23.6L59 23.6ZM59 9.2L59 2L55 2L55 9.2L59 9.2Z" fill="#581CFB"/>
</svg>
