<svg width="57" height="38" viewBox="0 0 57 38" fill="none" xmlns="http://www.w3.org/2000/svg">
<path d="M1 36L8.14618e-08 36L-8.14624e-08 38L1 38L1 36ZM56 37L56 38L57 38L57 37L56 37ZM57 0.999999L57 -6.33081e-07L55 -5.08291e-07L55 0.999999L57 0.999999ZM12 38L13 38L13 36L12 36L12 38ZM23 36L22 36L22 38L23 38L23 36ZM34 38L35 38L35 36L34 36L34 38ZM45 36L44 36L44 38L45 38L45 36ZM57 29.8L57 28.8L55 28.8L55 29.8L57 29.8ZM55 22.6L55 23.6L57 23.6L57 22.6L55 22.6ZM57 15.4L57 14.4L55 14.4L55 15.4L57 15.4ZM55 8.2L55 9.2L57 9.2L57 8.2L55 8.2ZM1 38L12 38L12 36L1 36L1 38ZM23 38L34 38L34 36L23 36L23 38ZM45 38L56 38L56 36L45 36L45 38ZM57 37L57 29.8L55 29.8L55 37L57 37ZM57 22.6L57 15.4L55 15.4L55 22.6L57 22.6ZM57 8.2L57 0.999999L55 0.999999L55 8.2L57 8.2Z" fill="#581CFB"/>
</svg>
